M48
INCH,TZ
T01C.016
;LEADER: 12 
;HEADER: 
;CODE  : ASCII 
;FILE  : DRILL-1-2.drl for  ... layers TOP and BOTTOM
;DESIGN: PCB_STABILIZATOR_EFTIMIE1.brd
;T01 Holesize 1. = 16.000000 Tolerance = +0.000000/-0.000000 PLATED MILS Quantity = 20
%
G90
T01
X109500Y81400
X110000Y147514
X102700Y121300
X87200Y121300
X105000Y107000
X75000Y53100
X73500Y88000
X65800Y121000
X106600Y99500
X82300Y111100
X14800Y79700
X111400Y55200
X127800Y44200
X132500Y97300
X39000Y57100
X52600Y114900
X39000Y75200
X120500Y105300
X101092Y43608
X120508Y30200
M30
