G04 ================== begin FILE IDENTIFICATION RECORD ==================*
G04 Layout Name:  D:/proiectul_meu/allegro/PCB_STABILIZATOR_EFTIMIE1.brd*
G04 Film Name:    SMTOP*
G04 File Format:  Gerber RS274X*
G04 File Origin:  Cadence Allegro 16.6-2015-S059*
G04 Origin Date:  Sun Dec 10 20:53:34 2023*
G04 *
G04 Layer:  VIA CLASS/SOLDERMASK_TOP*
G04 Layer:  PIN/SOLDERMASK_TOP*
G04 Layer:  PACKAGE GEOMETRY/SOLDERMASK_TOP*
G04 Layer:  DRC ERROR CLASS/SOLDERMASK_TOP*
G04 Layer:  BOARD GEOMETRY/SOLDERMASK_TOP*
G04 *
G04 Offset:    (0.00 0.00)*
G04 Mirror:    No*
G04 Mode:      Positive*
G04 Rotation:  0*
G04 FullContactRelief:  No*
G04 UndefLineWidth:     0.10*
G04 ================== end FILE IDENTIFICATION RECORD ====================*
%FSLAX25Y25*MOIN*%
%IR0*IPPOS*OFA0.00000B0.00000*MIA0B0*SFA1.00000B1.00000*%
%ADD12R,.13X.09*%
%ADD11C,.034*%
%ADD13C,.08*%
%ADD10R,.06X.06*%
%ADD19R,.06118X.06118*%
%ADD18R,.07287X.12798*%
%ADD14R,.046X.06*%
%ADD16R,.06X.046*%
%ADD20R,.089X.062*%
%ADD15R,.058X.086*%
%ADD17R,.23835X.25409*%
%LPD*%
G75*
G54D10*
X14800Y44200D03*
Y62400D03*
Y70800D03*
Y52600D03*
X10900Y104600D03*
Y113000D03*
X45700Y10200D03*
X37300D03*
X35700Y32800D03*
Y41200D03*
X44800Y22400D03*
X36400D03*
X29600Y104600D03*
X21200D03*
X44500Y104400D03*
X31700Y119900D03*
Y128300D03*
X44200Y122100D03*
Y130500D03*
X44500Y112800D03*
X31700Y139500D03*
Y147900D03*
X44200Y139500D03*
Y147900D03*
X56100Y10500D03*
X64500D03*
X48700Y35300D03*
X57100D03*
X67600Y43300D03*
X68100Y30700D03*
X76500D03*
X64500Y22400D03*
X56100D03*
X57100Y49600D03*
X48700D03*
X73500Y72500D03*
X67600Y51700D03*
X73500Y80900D03*
X58300Y120600D03*
Y129000D03*
X58100Y139700D03*
Y148100D03*
X71200Y139400D03*
Y147800D03*
X106400Y10600D03*
X106500Y22400D03*
X85500D03*
X93900D03*
X86300Y139100D03*
Y147500D03*
X127800Y10600D03*
X114800D03*
X127800Y29700D03*
Y38100D03*
Y19000D03*
X114900Y22400D03*
X128100Y85400D03*
X136500D03*
X113800Y134400D03*
Y126000D03*
X124200Y134400D03*
Y126000D03*
Y114000D03*
X132600D03*
X147900Y100700D03*
Y81100D03*
Y89500D03*
Y126800D03*
X139500D03*
X147900Y109100D03*
G54D20*
X143428Y48356D03*
G54D11*
X14800Y79700D03*
X39000Y57100D03*
Y75200D03*
X75000Y53100D03*
X73500Y88000D03*
X52600Y114900D03*
X65800Y121000D03*
X101092Y43608D03*
X82300Y111100D03*
X105000Y107000D03*
X87200Y121300D03*
X102700D03*
X120508Y30200D03*
X127800Y44200D03*
X111400Y55200D03*
X132500Y97300D03*
X106600Y99500D03*
X109500Y81400D03*
X120500Y105300D03*
X110000Y147514D03*
G54D12*
X14400Y124000D03*
Y147600D03*
X145300Y13100D03*
Y36700D03*
G54D13*
X20000Y20000D03*
X140000Y140000D03*
G54D14*
X31100Y57100D03*
X35200Y65200D03*
X27000D03*
X44500Y90000D03*
X40400Y81900D03*
X48600D03*
X75300Y119700D03*
X71200Y127800D03*
X90400Y38800D03*
X86300Y30700D03*
X94500D03*
X79400Y127800D03*
G54D15*
X21900Y92200D03*
X29800D03*
X77500Y11300D03*
X85400D03*
G54D16*
X65800Y64700D03*
X57700Y68800D03*
Y60600D03*
X65800Y102900D03*
X73900Y107000D03*
X65800Y111100D03*
X105900Y34300D03*
X89600Y102900D03*
X94600Y130500D03*
X102700Y126400D03*
Y134600D03*
X97700Y107000D03*
X89600Y111100D03*
X114000Y30200D03*
Y38400D03*
G54D17*
X92076Y81407D03*
G54D18*
X101092Y53100D03*
X83100D03*
G54D19*
X147955Y70600D03*
X138900D03*
M02*
