G04 ================== begin FILE IDENTIFICATION RECORD ==================*
G04 Layout Name:  D:/proiectul_meu/allegro/PCB_STABILIZATOR_EFTIMIE1.brd*
G04 Film Name:    SSTOP*
G04 File Format:  Gerber RS274X*
G04 File Origin:  Cadence Allegro 16.6-2015-S059*
G04 Origin Date:  Sun Dec 10 20:53:34 2023*
G04 *
G04 Layer:  USER PART NUMBER/SILKSCREEN_TOP*
G04 Layer:  TOLERANCE/SILKSCREEN_TOP*
G04 Layer:  REF DES/SILKSCREEN_TOP*
G04 Layer:  PACKAGE GEOMETRY/SILKSCREEN_TOP*
G04 Layer:  DEVICE TYPE/SILKSCREEN_TOP*
G04 Layer:  COMPONENT VALUE/SILKSCREEN_TOP*
G04 Layer:  BOARD GEOMETRY/SILKSCREEN_TOP*
G04 *
G04 Offset:    (0.00 0.00)*
G04 Mirror:    No*
G04 Mode:      Positive*
G04 Rotation:  0*
G04 FullContactRelief:  No*
G04 UndefLineWidth:     0.10*
G04 ================== end FILE IDENTIFICATION RECORD ====================*
%FSLAX25Y25*MOIN*%
%IR0*IPPOS*OFA0.00000B0.00000*MIA0B0*SFA1.00000B1.00000*%
%ADD10C,.0007*%
%ADD11C,.006*%
%ADD12C,.007*%
%ADD13C,.00787*%
G75*
%LPD*%
G75*
G54D10*
G01X29600Y63600D02*
X32600D01*
G01X33900Y58100D02*
X36800D01*
Y61900D01*
G01X28100Y57800D02*
X25300D01*
Y61700D01*
G01X46100Y81300D02*
X43000D01*
G01X38500Y86000D02*
Y89100D01*
X38600Y89200D01*
X41900D01*
G01X58200Y66000D02*
Y62800D01*
G01X60600Y70500D02*
X64500D01*
Y67000D01*
G01X60500Y58100D02*
X64500D01*
Y61700D01*
G01X73400Y104500D02*
Y100600D01*
X69500D01*
G01X50900Y85800D02*
Y89600D01*
X47300D01*
G01X66100Y108600D02*
Y105500D01*
G01X69000Y113100D02*
X72900D01*
Y109600D01*
G01X69200Y124600D02*
Y120700D01*
X72800D01*
G01X92900Y37900D02*
X96600D01*
Y34200D01*
G01X87800Y37800D02*
X84000D01*
Y34100D01*
G01X88900Y31400D02*
X91800D01*
G01X92800Y100800D02*
X96600D01*
Y104500D01*
G01X73900Y126100D02*
X76800D01*
G01X81500Y124600D02*
Y120600D01*
X77800D01*
G01X99600Y124300D02*
X95600D01*
Y128000D01*
G01X101700Y132200D02*
Y129000D01*
G01X96900Y109500D02*
Y113300D01*
X92900D01*
G01X90500Y105300D02*
Y108600D01*
G01X99500Y136800D02*
X95600D01*
Y133100D01*
G01X113000Y32900D02*
Y35800D01*
G01X110500Y28000D02*
X106900D01*
Y31800D01*
G01X110600Y40600D02*
X106900D01*
Y36900D01*
G54D11*
G01X18550Y40400D02*
X11050D01*
G01D02*
Y56400D01*
G01X18550Y58600D02*
X11050D01*
G01D02*
Y74600D01*
G01Y56400D02*
X18550D01*
G01X14650Y100800D02*
X7150D01*
G01D02*
Y116800D01*
G01X11050Y74600D02*
X18550D01*
G01X6900Y118550D02*
X21900D01*
G01X6900Y153050D02*
Y118550D01*
G01X7150Y116800D02*
X14650D01*
G01X21900Y153050D02*
X6900D01*
G01X49500Y6450D02*
X33500D01*
G01D02*
Y13950D01*
G01X39450Y45000D02*
Y29000D01*
G01D02*
X31950D01*
G01D02*
Y45000D01*
G01X33500Y13950D02*
X49500D01*
G01X32600Y26150D02*
X48600D01*
G01Y18650D02*
X32600D01*
G01D02*
Y26150D01*
G01X18550Y56400D02*
Y40400D01*
G01Y74600D02*
Y58600D01*
G01X31950Y45000D02*
X39450D01*
G01X14650Y116800D02*
Y100800D01*
G01X33400Y108350D02*
Y100850D01*
G01D02*
X17400D01*
G01D02*
Y108350D01*
G01X48250Y100600D02*
X40750D01*
G01D02*
Y116600D01*
G01X33700Y87050D02*
X17900D01*
G01D02*
Y91350D01*
G01D02*
X17050Y92200D01*
G01D02*
X17900Y93050D01*
G01D02*
Y97350D01*
G01D02*
X33700D01*
G01D02*
Y87050D01*
G01X21900Y118550D02*
Y153050D01*
G01X35450Y132100D02*
Y116100D01*
G01D02*
X27950D01*
G01D02*
Y132100D01*
G01D02*
X35450D01*
G01X17400Y108350D02*
X33400D01*
G01X47950Y118300D02*
X40450D01*
G01D02*
Y134300D01*
G01X40750Y116600D02*
X48250D01*
G01X35450Y151700D02*
Y135700D01*
G01D02*
X27950D01*
G01D02*
Y151700D01*
G01D02*
X35450D01*
G01X40450Y134300D02*
X47950D01*
G01Y135700D02*
X40450D01*
G01D02*
Y151700D01*
G01D02*
X47950D01*
G01X49500Y13950D02*
Y6450D01*
G01X68300Y6750D02*
X52300D01*
G01D02*
Y14250D01*
G01X68300D02*
Y6750D01*
G01X89300Y6150D02*
X73500D01*
G01D02*
Y10450D01*
G01D02*
X72650Y11300D01*
G01D02*
X73500Y12150D01*
G01D02*
Y16450D01*
G01X60900Y31550D02*
X44900D01*
G01D02*
Y39050D01*
G01D02*
X60900D01*
G01D02*
Y31550D01*
G01X71350Y55500D02*
Y39500D01*
G01D02*
X63850D01*
G01D02*
Y55500D01*
G01X80300Y26950D02*
X64300D01*
G01D02*
Y34450D01*
G01D02*
X80300D01*
G01X48600Y26150D02*
Y18650D01*
G01X52300Y26150D02*
X68300D01*
G01D02*
Y18650D01*
G01D02*
X52300D01*
G01D02*
Y26150D01*
G01Y14250D02*
X68300D01*
G01X73500Y16450D02*
X89300D01*
G01X44900Y53350D02*
X60900D01*
G01D02*
Y45850D01*
G01D02*
X44900D01*
G01D02*
Y53350D01*
G01X77250Y68700D02*
X69750D01*
G01D02*
Y84700D01*
G01X63850Y55500D02*
X71350D01*
G01X48250Y116600D02*
Y100600D01*
G01X69750Y84700D02*
X77250D01*
G01X47950Y134300D02*
Y118300D01*
G01X62050Y132800D02*
Y116800D01*
G01D02*
X54550D01*
G01D02*
Y132800D01*
G01X61850Y151900D02*
Y135900D01*
G01D02*
X54350D01*
G01D02*
Y151900D01*
G01D02*
X61850D01*
G01X54550Y132800D02*
X62050D01*
G01X74950Y135600D02*
X67450D01*
G01D02*
Y151600D01*
G01D02*
X74950D01*
G01X47950Y151700D02*
Y135700D01*
G01X118600Y6850D02*
X102600D01*
G01D02*
Y14350D01*
G01X89300Y16450D02*
Y6150D01*
G01X80300Y34450D02*
Y26950D01*
G01X102600Y14350D02*
X118600D01*
G01X118700Y18650D02*
X102700D01*
G01D02*
Y26150D01*
G01D02*
X118700D01*
G01X97700Y18650D02*
X81700D01*
G01D02*
Y26150D01*
G01D02*
X97700D01*
G01D02*
Y18650D01*
G01X77250Y84700D02*
Y68700D01*
G01X74950Y151600D02*
Y135600D01*
G01X90050Y151300D02*
Y135300D01*
G01D02*
X82550D01*
G01D02*
Y151300D01*
G01D02*
X90050D01*
G01X131550Y22800D02*
Y6800D01*
G01D02*
X124050D01*
G01D02*
Y22800D01*
G01X118600Y14350D02*
Y6850D01*
G01X131550Y41900D02*
Y25900D01*
G01D02*
X124050D01*
G01D02*
Y41900D01*
G01D02*
X131550D01*
G01X124050Y22800D02*
X131550D01*
G01X118700Y26150D02*
Y18650D01*
G01X140300Y81650D02*
X124300D01*
G01D02*
Y89150D01*
G01D02*
X140300D01*
G01X110050Y122200D02*
Y138200D01*
G01X117550D02*
Y122200D01*
G01D02*
X110050D01*
G01X120450D02*
Y138200D01*
G01X127950D02*
Y122200D01*
G01D02*
X120450D01*
G01X136400Y110250D02*
X120400D01*
G01D02*
Y117750D01*
G01D02*
X136400D01*
G01X110050Y138200D02*
X117550D01*
G01X120450D02*
X127950D01*
G01X137800Y7650D02*
X152800D01*
G01D02*
Y42150D01*
G01X137800D02*
Y7650D01*
G01X152800Y42150D02*
X137800D01*
G01X151650Y112900D02*
Y96900D01*
G01D02*
X144150D01*
G01D02*
Y112900D01*
G01X151650Y93300D02*
Y77300D01*
G01D02*
X144150D01*
G01D02*
Y93300D01*
G01D02*
X151650D01*
G01X140300Y89150D02*
Y81650D01*
G01X136400Y117750D02*
Y110250D01*
G01X135700Y130550D02*
X151700D01*
G01D02*
Y123050D01*
G01D02*
X135700D01*
G01D02*
Y130550D01*
G01X144150Y112900D02*
X151650D01*
G54D12*
G01X9200Y26433D02*
Y25367D01*
X6700D01*
Y26433D01*
G01X7908Y26007D02*
Y25367D01*
G01X9200Y27740D02*
X7075D01*
X6867Y27793D01*
X6742Y27900D01*
X6700Y28060D01*
X6783Y28220D01*
X6992Y28300D01*
G01X7700Y27980D02*
Y27447D01*
G01X6700Y29900D02*
X9200D01*
G01X7533Y29527D02*
Y30273D01*
G01Y31900D02*
X9200D01*
G01X6867D02*
X6825Y31847D01*
X6742D01*
X6700Y31900D01*
X6742Y31953D01*
X6825D01*
X6867Y31900D01*
G01X9200Y33100D02*
X7533D01*
G01X7992D02*
X7783Y33180D01*
X7617Y33313D01*
X7533Y33500D01*
X7617Y33687D01*
X7783Y33820D01*
X7992Y33900D01*
X9200D01*
G01X7992D02*
X7783Y33980D01*
X7617Y34113D01*
X7533Y34300D01*
X7617Y34487D01*
X7783Y34620D01*
X8033Y34700D01*
X9200D01*
G01X7533Y35900D02*
X9200D01*
G01X6867D02*
X6825Y35847D01*
X6742D01*
X6700Y35900D01*
X6742Y35953D01*
X6825D01*
X6867Y35900D01*
G01X8075Y37500D02*
Y38353D01*
X7783Y38273D01*
X7617Y38140D01*
X7533Y37953D01*
X7575Y37767D01*
X7700Y37607D01*
X7992Y37500D01*
X8242Y37447D01*
X8492D01*
X8742Y37500D01*
X8992Y37633D01*
X9158Y37793D01*
X9200Y37980D01*
X9117Y38167D01*
X8867Y38353D01*
G01X9200Y41233D02*
X6700Y41900D01*
X9200Y42567D01*
G01X8325Y42327D02*
Y41473D01*
G01X9200Y43900D02*
X6700D01*
G01X9200Y45420D02*
X6700D01*
G01X7950D02*
X7700Y45553D01*
X7575Y45713D01*
X7533Y45873D01*
X7617Y46113D01*
X7783Y46273D01*
X8075Y46380D01*
X8408D01*
X8742Y46327D01*
X8992Y46220D01*
X9158Y46033D01*
X9200Y45873D01*
X9158Y45713D01*
X9033Y45553D01*
X8825Y45420D01*
G01X8075Y47500D02*
Y48353D01*
X7783Y48273D01*
X7617Y48140D01*
X7533Y47953D01*
X7575Y47767D01*
X7700Y47607D01*
X7992Y47500D01*
X8242Y47447D01*
X8492D01*
X8742Y47500D01*
X8992Y47633D01*
X9158Y47793D01*
X9200Y47980D01*
X9117Y48167D01*
X8867Y48353D01*
G01X9200Y49527D02*
X7533D01*
G01X7867D02*
X7700Y49660D01*
X7575Y49793D01*
X7533Y49980D01*
X7575Y50113D01*
X7700Y50273D01*
G01X6700Y51900D02*
X9200D01*
G01X7533Y51527D02*
Y52273D01*
G01X9200Y56220D02*
X6700D01*
X8492Y55233D01*
Y56567D01*
G01X8700Y57313D02*
X8992Y57473D01*
X9158Y57687D01*
X9200Y57927D01*
X9158Y58140D01*
X8950Y58353D01*
X8700Y58487D01*
X8450Y58513D01*
X8158Y58460D01*
X7950Y58273D01*
X7867Y58087D01*
Y57847D01*
G01Y58087D02*
X7742Y58247D01*
X7533Y58380D01*
X7283Y58433D01*
X7033Y58380D01*
X6825Y58247D01*
X6700Y58007D01*
X6742Y57767D01*
X6908Y57527D01*
G01X7117Y59393D02*
X6867Y59553D01*
X6742Y59740D01*
X6700Y59953D01*
X6783Y60220D01*
X6992Y60407D01*
X7242Y60460D01*
X7492Y60433D01*
X7700Y60327D01*
X8117Y59793D01*
X8408Y59553D01*
X8825Y59393D01*
X9200Y59340D01*
Y60460D01*
G01Y61313D02*
X6700D01*
Y61847D01*
X6825Y62060D01*
X6992Y62220D01*
X7242Y62353D01*
X7533Y62460D01*
X7950Y62487D01*
X8367Y62460D01*
X8658Y62353D01*
X8908Y62220D01*
X9075Y62060D01*
X9200Y61847D01*
Y61313D01*
G01X16600Y32233D02*
X13600D01*
Y33067D01*
X13750Y33333D01*
X13950Y33500D01*
X14350Y33567D01*
X14750Y33500D01*
X15000Y33300D01*
X15150Y33067D01*
Y32233D01*
G01Y33067D02*
X16600Y33567D01*
G01X14100Y34667D02*
X13800Y34867D01*
X13650Y35100D01*
X13600Y35367D01*
X13700Y35700D01*
X13950Y35933D01*
X14250Y36000D01*
X14550Y35967D01*
X14800Y35833D01*
X15300Y35167D01*
X15650Y34867D01*
X16150Y34667D01*
X16600Y34600D01*
Y36000D01*
G01X13600Y37700D02*
X13700Y37433D01*
X13950Y37233D01*
X14250Y37100D01*
X14650Y37000D01*
X15100Y36967D01*
X15550Y37000D01*
X15950Y37100D01*
X16250Y37233D01*
X16500Y37433D01*
X16600Y37700D01*
X16500Y37967D01*
X16250Y38167D01*
X15950Y38300D01*
X15550Y38400D01*
X15100Y38433D01*
X14650Y38400D01*
X14250Y38300D01*
X13950Y38167D01*
X13700Y37967D01*
X13600Y37700D01*
G01X9200Y67767D02*
X6700D01*
Y68407D01*
X6825Y68620D01*
X7117Y68780D01*
X7450Y68833D01*
X7783Y68780D01*
X8033Y68647D01*
X8158Y68407D01*
Y67767D01*
G01X9200Y69713D02*
X6700D01*
Y70247D01*
X6825Y70460D01*
X6992Y70620D01*
X7242Y70753D01*
X7533Y70860D01*
X7950Y70887D01*
X8367Y70860D01*
X8658Y70753D01*
X8908Y70620D01*
X9075Y70460D01*
X9200Y70247D01*
Y69713D01*
G01X6908Y72887D02*
X6783Y72727D01*
X6700Y72540D01*
Y72327D01*
X6825Y72087D01*
X7033Y71900D01*
X7283Y71767D01*
X7700Y71660D01*
X8075Y71633D01*
X8450Y71687D01*
X8700Y71767D01*
X8950Y71927D01*
X9117Y72113D01*
X9200Y72300D01*
Y72487D01*
X9117Y72673D01*
X8992Y72833D01*
X8825Y72967D01*
G01X9200Y74833D02*
Y73767D01*
X6700D01*
Y74833D01*
G01X7908Y74407D02*
Y73767D01*
G01X6700Y77980D02*
Y78620D01*
G01Y78300D02*
X9200D01*
G01Y77980D02*
Y78620D01*
G01X7117Y81793D02*
X6867Y81953D01*
X6742Y82140D01*
X6700Y82353D01*
X6783Y82620D01*
X6992Y82807D01*
X7242Y82860D01*
X7492Y82833D01*
X7700Y82727D01*
X8117Y82193D01*
X8408Y81953D01*
X8825Y81793D01*
X9200Y81740D01*
Y82860D01*
G01X6700Y84300D02*
X6783Y84087D01*
X6992Y83927D01*
X7242Y83820D01*
X7575Y83740D01*
X7950Y83713D01*
X8325Y83740D01*
X8658Y83820D01*
X8908Y83927D01*
X9117Y84087D01*
X9200Y84300D01*
X9117Y84513D01*
X8908Y84673D01*
X8658Y84780D01*
X8325Y84860D01*
X7950Y84887D01*
X7575Y84860D01*
X7242Y84780D01*
X6992Y84673D01*
X6783Y84513D01*
X6700Y84300D01*
G01X7117Y85793D02*
X6867Y85953D01*
X6742Y86140D01*
X6700Y86353D01*
X6783Y86620D01*
X6992Y86807D01*
X7242Y86860D01*
X7492Y86833D01*
X7700Y86727D01*
X8117Y86193D01*
X8408Y85953D01*
X8825Y85793D01*
X9200Y85740D01*
Y86860D01*
G01X8700Y87713D02*
X8992Y87873D01*
X9158Y88087D01*
X9200Y88327D01*
X9158Y88540D01*
X8950Y88753D01*
X8700Y88887D01*
X8450Y88913D01*
X8158Y88860D01*
X7950Y88673D01*
X7867Y88487D01*
Y88247D01*
G01Y88487D02*
X7742Y88647D01*
X7533Y88780D01*
X7283Y88833D01*
X7033Y88780D01*
X6825Y88647D01*
X6700Y88407D01*
X6742Y88167D01*
X6908Y87927D01*
G01X8367Y89953D02*
Y90647D01*
G01X7117Y91793D02*
X6867Y91953D01*
X6742Y92140D01*
X6700Y92353D01*
X6783Y92620D01*
X6992Y92807D01*
X7242Y92860D01*
X7492Y92833D01*
X7700Y92727D01*
X8117Y92193D01*
X8408Y91953D01*
X8825Y91793D01*
X9200Y91740D01*
Y92860D01*
G01X6700Y94300D02*
X6783Y94087D01*
X6992Y93927D01*
X7242Y93820D01*
X7575Y93740D01*
X7950Y93713D01*
X8325Y93740D01*
X8658Y93820D01*
X8908Y93927D01*
X9117Y94087D01*
X9200Y94300D01*
X9117Y94513D01*
X8908Y94673D01*
X8658Y94780D01*
X8325Y94860D01*
X7950Y94887D01*
X7575Y94860D01*
X7242Y94780D01*
X6992Y94673D01*
X6783Y94513D01*
X6700Y94300D01*
G01X7117Y95793D02*
X6867Y95953D01*
X6742Y96140D01*
X6700Y96353D01*
X6783Y96620D01*
X6992Y96807D01*
X7242Y96860D01*
X7492Y96833D01*
X7700Y96727D01*
X8117Y96193D01*
X8408Y95953D01*
X8825Y95793D01*
X9200Y95740D01*
Y96860D01*
G01Y98620D02*
X6700D01*
X8492Y97633D01*
Y98967D01*
G01X25433Y8400D02*
Y11400D01*
X26267D01*
X26533Y11250D01*
X26700Y11050D01*
X26767Y10650D01*
X26700Y10250D01*
X26500Y10000D01*
X26267Y9850D01*
X25433D01*
G01X26267D02*
X26767Y8400D01*
G01X27867Y10900D02*
X28067Y11200D01*
X28300Y11350D01*
X28567Y11400D01*
X28900Y11300D01*
X29133Y11050D01*
X29200Y10750D01*
X29167Y10450D01*
X29033Y10200D01*
X28367Y9700D01*
X28067Y9350D01*
X27867Y8850D01*
X27800Y8400D01*
X29200D01*
G01X30267Y10900D02*
X30467Y11200D01*
X30700Y11350D01*
X30967Y11400D01*
X31300Y11300D01*
X31533Y11050D01*
X31600Y10750D01*
X31567Y10450D01*
X31433Y10200D01*
X30767Y9700D01*
X30467Y9350D01*
X30267Y8850D01*
X30200Y8400D01*
X31600D01*
G01X23233Y31300D02*
Y34300D01*
X24067D01*
X24333Y34150D01*
X24500Y33950D01*
X24567Y33550D01*
X24500Y33150D01*
X24300Y32900D01*
X24067Y32750D01*
X23233D01*
G01X24067D02*
X24567Y31300D01*
G01X25667Y33800D02*
X25867Y34100D01*
X26100Y34250D01*
X26367Y34300D01*
X26700Y34200D01*
X26933Y33950D01*
X27000Y33650D01*
X26967Y33350D01*
X26833Y33100D01*
X26167Y32600D01*
X25867Y32250D01*
X25667Y31750D01*
X25600Y31300D01*
X27000D01*
G01X28700D02*
Y34300D01*
X28300Y33700D01*
G01Y31300D02*
X29100D01*
G01X41333Y27200D02*
Y30200D01*
X42167D01*
X42433Y30050D01*
X42600Y29850D01*
X42667Y29450D01*
X42600Y29050D01*
X42400Y28800D01*
X42167Y28650D01*
X41333D01*
G01X42167D02*
X42667Y27200D01*
G01X43767Y29700D02*
X43967Y30000D01*
X44200Y30150D01*
X44467Y30200D01*
X44800Y30100D01*
X45033Y29850D01*
X45100Y29550D01*
X45067Y29250D01*
X44933Y29000D01*
X44267Y28500D01*
X43967Y28150D01*
X43767Y27650D01*
X43700Y27200D01*
X45100D01*
G01X46067Y27800D02*
X46267Y27450D01*
X46533Y27250D01*
X46833Y27200D01*
X47100Y27250D01*
X47367Y27500D01*
X47533Y27800D01*
X47567Y28100D01*
X47500Y28450D01*
X47267Y28700D01*
X47033Y28800D01*
X46733D01*
G01X47033D02*
X47233Y28950D01*
X47400Y29200D01*
X47467Y29500D01*
X47400Y29800D01*
X47233Y30050D01*
X46933Y30200D01*
X46633Y30150D01*
X46333Y29950D01*
G01X23100Y66733D02*
X20100D01*
Y67567D01*
X20250Y67833D01*
X20450Y68000D01*
X20850Y68067D01*
X21250Y68000D01*
X21500Y67800D01*
X21650Y67567D01*
Y66733D01*
G01Y67567D02*
X23100Y68067D01*
G01Y69800D02*
X20100D01*
X20700Y69400D01*
G01X23100D02*
Y70200D01*
G01X22750Y71633D02*
X23000Y71867D01*
X23100Y72133D01*
X23000Y72400D01*
X22700Y72633D01*
X22250Y72800D01*
X21800Y72867D01*
X21250D01*
X20800Y72800D01*
X20400Y72633D01*
X20200Y72433D01*
X20100Y72200D01*
X20200Y71933D01*
X20400Y71733D01*
X20700Y71600D01*
X21100Y71533D01*
X21450Y71600D01*
X21800Y71767D01*
X22000Y71967D01*
X22050Y72200D01*
X21950Y72467D01*
X21700Y72667D01*
X21250Y72867D01*
G01X24600Y49800D02*
X24333Y49850D01*
X24100Y50050D01*
X23900Y50350D01*
X23767Y50700D01*
X23700Y51100D01*
Y51500D01*
X23767Y51900D01*
X23900Y52250D01*
X24100Y52550D01*
X24333Y52750D01*
X24600Y52800D01*
X24867Y52750D01*
X25100Y52550D01*
X25300Y52250D01*
X25433Y51900D01*
X25500Y51500D01*
Y51100D01*
X25433Y50700D01*
X25300Y50350D01*
X25100Y50050D01*
X24867Y49850D01*
X24600Y49800D01*
G01X24867Y50600D02*
X25267Y49800D01*
G01X26367Y51050D02*
X26600Y51400D01*
X26800Y51600D01*
X27067Y51700D01*
X27300Y51600D01*
X27467Y51400D01*
X27600Y51100D01*
X27633Y50750D01*
X27600Y50450D01*
X27467Y50150D01*
X27267Y49900D01*
X27033Y49800D01*
X26767Y49900D01*
X26533Y50200D01*
X26400Y50650D01*
X26367Y51150D01*
X26433Y51800D01*
X26533Y52150D01*
X26700Y52500D01*
X26933Y52750D01*
X27167Y52800D01*
X27400Y52700D01*
X27567Y52450D01*
G01X38100Y101733D02*
X35100D01*
Y102567D01*
X35250Y102833D01*
X35450Y103000D01*
X35850Y103067D01*
X36250Y103000D01*
X36500Y102800D01*
X36650Y102567D01*
Y101733D01*
G01Y102567D02*
X38100Y103067D01*
G01Y105200D02*
X35100D01*
X37250Y103967D01*
Y105633D01*
G01X35100Y107200D02*
X35200Y106933D01*
X35450Y106733D01*
X35750Y106600D01*
X36150Y106500D01*
X36600Y106467D01*
X37050Y106500D01*
X37450Y106600D01*
X37750Y106733D01*
X38000Y106933D01*
X38100Y107200D01*
X38000Y107467D01*
X37750Y107667D01*
X37450Y107800D01*
X37050Y107900D01*
X36600Y107933D01*
X36150Y107900D01*
X35750Y107800D01*
X35450Y107667D01*
X35200Y107467D01*
X35100Y107200D01*
G01X22367Y82200D02*
Y85200D01*
X23033D01*
X23300Y85050D01*
X23500Y84850D01*
X23667Y84550D01*
X23800Y84200D01*
X23833Y83700D01*
X23800Y83200D01*
X23667Y82850D01*
X23500Y82550D01*
X23300Y82350D01*
X23033Y82200D01*
X22367D01*
G01X25900D02*
Y85200D01*
X24667Y83050D01*
X26333D01*
G01X25800Y131833D02*
X26100Y132000D01*
X26300Y132200D01*
X26400Y132433D01*
X26300Y132700D01*
X26100Y132900D01*
X25800Y133100D01*
X25400Y133167D01*
X23400D01*
G01X23900Y134267D02*
X23600Y134467D01*
X23450Y134700D01*
X23400Y134967D01*
X23500Y135300D01*
X23750Y135533D01*
X24050Y135600D01*
X24350Y135567D01*
X24600Y135433D01*
X25100Y134767D01*
X25450Y134467D01*
X25950Y134267D01*
X26400Y134200D01*
Y135600D01*
G01X39500Y121333D02*
X36500D01*
Y122167D01*
X36650Y122433D01*
X36850Y122600D01*
X37250Y122667D01*
X37650Y122600D01*
X37900Y122400D01*
X38050Y122167D01*
Y121333D01*
G01Y122167D02*
X39500Y122667D01*
G01X38900Y123667D02*
X39250Y123867D01*
X39450Y124133D01*
X39500Y124433D01*
X39450Y124700D01*
X39200Y124967D01*
X38900Y125133D01*
X38600Y125167D01*
X38250Y125100D01*
X38000Y124867D01*
X37900Y124633D01*
Y124333D01*
G01Y124633D02*
X37750Y124833D01*
X37500Y125000D01*
X37200Y125067D01*
X36900Y125000D01*
X36650Y124833D01*
X36500Y124533D01*
X36550Y124233D01*
X36750Y123933D01*
G01X39500Y126800D02*
X39450Y127033D01*
X39300Y127300D01*
X39050Y127467D01*
X38700Y127533D01*
X38350Y127467D01*
X38050Y127267D01*
X37900Y126967D01*
Y126633D01*
X37800Y126433D01*
X37550Y126267D01*
X37200Y126200D01*
X36850Y126300D01*
X36600Y126533D01*
X36500Y126800D01*
X36600Y127067D01*
X36850Y127300D01*
X37200Y127400D01*
X37550Y127333D01*
X37800Y127167D01*
X37900Y126967D01*
Y126633D01*
X38050Y126333D01*
X38350Y126133D01*
X38700Y126067D01*
X39050Y126133D01*
X39300Y126300D01*
X39450Y126567D01*
X39500Y126800D01*
G01X20400Y110533D02*
X17400D01*
Y111367D01*
X17550Y111633D01*
X17750Y111800D01*
X18150Y111867D01*
X18550Y111800D01*
X18800Y111600D01*
X18950Y111367D01*
Y110533D01*
G01Y111367D02*
X20400Y111867D01*
G01X19800Y112867D02*
X20150Y113067D01*
X20350Y113333D01*
X20400Y113633D01*
X20350Y113900D01*
X20100Y114167D01*
X19800Y114333D01*
X19500Y114367D01*
X19150Y114300D01*
X18900Y114067D01*
X18800Y113833D01*
Y113533D01*
G01Y113833D02*
X18650Y114033D01*
X18400Y114200D01*
X18100Y114267D01*
X17800Y114200D01*
X17550Y114033D01*
X17400Y113733D01*
X17450Y113433D01*
X17650Y113133D01*
G01X20050Y115433D02*
X20300Y115667D01*
X20400Y115933D01*
X20300Y116200D01*
X20000Y116433D01*
X19550Y116600D01*
X19100Y116667D01*
X18550D01*
X18100Y116600D01*
X17700Y116433D01*
X17500Y116233D01*
X17400Y116000D01*
X17500Y115733D01*
X17700Y115533D01*
X18000Y115400D01*
X18400Y115333D01*
X18750Y115400D01*
X19100Y115567D01*
X19300Y115767D01*
X19350Y116000D01*
X19250Y116267D01*
X19000Y116467D01*
X18550Y116667D01*
G01X39400Y137633D02*
X36400D01*
Y138467D01*
X36550Y138733D01*
X36750Y138900D01*
X37150Y138967D01*
X37550Y138900D01*
X37800Y138700D01*
X37950Y138467D01*
Y137633D01*
G01Y138467D02*
X39400Y138967D01*
G01X38800Y139967D02*
X39150Y140167D01*
X39350Y140433D01*
X39400Y140733D01*
X39350Y141000D01*
X39100Y141267D01*
X38800Y141433D01*
X38500Y141467D01*
X38150Y141400D01*
X37900Y141167D01*
X37800Y140933D01*
Y140633D01*
G01Y140933D02*
X37650Y141133D01*
X37400Y141300D01*
X37100Y141367D01*
X36800Y141300D01*
X36550Y141133D01*
X36400Y140833D01*
X36450Y140533D01*
X36650Y140233D01*
G01X36900Y142467D02*
X36600Y142667D01*
X36450Y142900D01*
X36400Y143167D01*
X36500Y143500D01*
X36750Y143733D01*
X37050Y143800D01*
X37350Y143767D01*
X37600Y143633D01*
X38100Y142967D01*
X38450Y142667D01*
X38950Y142467D01*
X39400Y142400D01*
Y143800D01*
G01X47233Y41500D02*
Y44500D01*
X48067D01*
X48333Y44350D01*
X48500Y44150D01*
X48567Y43750D01*
X48500Y43350D01*
X48300Y43100D01*
X48067Y42950D01*
X47233D01*
G01X48067D02*
X48567Y41500D01*
G01X50300D02*
X50533Y41550D01*
X50800Y41700D01*
X50967Y41950D01*
X51033Y42300D01*
X50967Y42650D01*
X50767Y42950D01*
X50467Y43100D01*
X50133D01*
X49933Y43200D01*
X49767Y43450D01*
X49700Y43800D01*
X49800Y44150D01*
X50033Y44400D01*
X50300Y44500D01*
X50567Y44400D01*
X50800Y44150D01*
X50900Y43800D01*
X50833Y43450D01*
X50667Y43200D01*
X50467Y43100D01*
X50133D01*
X49833Y42950D01*
X49633Y42650D01*
X49567Y42300D01*
X49633Y41950D01*
X49800Y41700D01*
X50067Y41550D01*
X50300Y41500D01*
G01X53833Y27600D02*
Y30600D01*
X54667D01*
X54933Y30450D01*
X55100Y30250D01*
X55167Y29850D01*
X55100Y29450D01*
X54900Y29200D01*
X54667Y29050D01*
X53833D01*
G01X54667D02*
X55167Y27600D01*
G01X57300D02*
Y30600D01*
X56067Y28450D01*
X57733D01*
G01X58667Y30100D02*
X58867Y30400D01*
X59100Y30550D01*
X59367Y30600D01*
X59700Y30500D01*
X59933Y30250D01*
X60000Y29950D01*
X59967Y29650D01*
X59833Y29400D01*
X59167Y28900D01*
X58867Y28550D01*
X58667Y28050D01*
X58600Y27600D01*
X60000D01*
G01X73233Y42200D02*
Y45200D01*
X74067D01*
X74333Y45050D01*
X74500Y44850D01*
X74567Y44450D01*
X74500Y44050D01*
X74300Y43800D01*
X74067Y43650D01*
X73233D01*
G01X74067D02*
X74567Y42200D01*
G01X76300D02*
Y45200D01*
X75900Y44600D01*
G01Y42200D02*
X76700D01*
G01X78700Y45200D02*
X78433Y45100D01*
X78233Y44850D01*
X78100Y44550D01*
X78000Y44150D01*
X77967Y43700D01*
X78000Y43250D01*
X78100Y42850D01*
X78233Y42550D01*
X78433Y42300D01*
X78700Y42200D01*
X78967Y42300D01*
X79167Y42550D01*
X79300Y42850D01*
X79400Y43250D01*
X79433Y43700D01*
X79400Y44150D01*
X79300Y44550D01*
X79167Y44850D01*
X78967Y45100D01*
X78700Y45200D01*
G01X65233Y35500D02*
Y38500D01*
X66067D01*
X66333Y38350D01*
X66500Y38150D01*
X66567Y37750D01*
X66500Y37350D01*
X66300Y37100D01*
X66067Y36950D01*
X65233D01*
G01X66067D02*
X66567Y35500D01*
G01X68300D02*
Y38500D01*
X67900Y37900D01*
G01Y35500D02*
X68700D01*
G01X70700D02*
Y38500D01*
X70300Y37900D01*
G01Y35500D02*
X71100D01*
G01X69633Y21000D02*
Y24000D01*
X70467D01*
X70733Y23850D01*
X70900Y23650D01*
X70967Y23250D01*
X70900Y22850D01*
X70700Y22600D01*
X70467Y22450D01*
X69633D01*
G01X70467D02*
X70967Y21000D01*
G01X72067Y23500D02*
X72267Y23800D01*
X72500Y23950D01*
X72767Y24000D01*
X73100Y23900D01*
X73333Y23650D01*
X73400Y23350D01*
X73367Y23050D01*
X73233Y22800D01*
X72567Y22300D01*
X72267Y21950D01*
X72067Y21450D01*
X72000Y21000D01*
X73400D01*
G01X74367Y21450D02*
X74567Y21200D01*
X74800Y21050D01*
X75100Y21000D01*
X75400Y21100D01*
X75633Y21300D01*
X75800Y21650D01*
X75833Y22050D01*
X75767Y22450D01*
X75600Y22700D01*
X75367Y22900D01*
X75133Y22950D01*
X74900Y22900D01*
X74600Y22700D01*
X74700Y24000D01*
X75600D01*
G01X61533Y14900D02*
Y17900D01*
X62367D01*
X62633Y17750D01*
X62800Y17550D01*
X62867Y17150D01*
X62800Y16750D01*
X62600Y16500D01*
X62367Y16350D01*
X61533D01*
G01X62367D02*
X62867Y14900D01*
G01X63967Y17400D02*
X64167Y17700D01*
X64400Y17850D01*
X64667Y17900D01*
X65000Y17800D01*
X65233Y17550D01*
X65300Y17250D01*
X65267Y16950D01*
X65133Y16700D01*
X64467Y16200D01*
X64167Y15850D01*
X63967Y15350D01*
X63900Y14900D01*
X65300D01*
G01X66367Y16150D02*
X66600Y16500D01*
X66800Y16700D01*
X67067Y16800D01*
X67300Y16700D01*
X67467Y16500D01*
X67600Y16200D01*
X67633Y15850D01*
X67600Y15550D01*
X67467Y15250D01*
X67267Y15000D01*
X67033Y14900D01*
X66767Y15000D01*
X66533Y15300D01*
X66400Y15750D01*
X66367Y16250D01*
X66433Y16900D01*
X66533Y17250D01*
X66700Y17600D01*
X66933Y17850D01*
X67167Y17900D01*
X67400Y17800D01*
X67567Y17550D01*
G01X49300Y65400D02*
X49033Y65450D01*
X48800Y65650D01*
X48600Y65950D01*
X48467Y66300D01*
X48400Y66700D01*
Y67100D01*
X48467Y67500D01*
X48600Y67850D01*
X48800Y68150D01*
X49033Y68350D01*
X49300Y68400D01*
X49567Y68350D01*
X49800Y68150D01*
X50000Y67850D01*
X50133Y67500D01*
X50200Y67100D01*
Y66700D01*
X50133Y66300D01*
X50000Y65950D01*
X49800Y65650D01*
X49567Y65450D01*
X49300Y65400D01*
G01X49567Y66200D02*
X49967Y65400D01*
G01X50967Y65850D02*
X51167Y65600D01*
X51400Y65450D01*
X51700Y65400D01*
X52000Y65500D01*
X52233Y65700D01*
X52400Y66050D01*
X52433Y66450D01*
X52367Y66850D01*
X52200Y67100D01*
X51967Y67300D01*
X51733Y67350D01*
X51500Y67300D01*
X51200Y67100D01*
X51300Y68400D01*
X52200D01*
G01X64433Y73700D02*
Y76700D01*
X65267D01*
X65533Y76550D01*
X65700Y76350D01*
X65767Y75950D01*
X65700Y75550D01*
X65500Y75300D01*
X65267Y75150D01*
X64433D01*
G01X65267D02*
X65767Y73700D01*
G01X66933Y74050D02*
X67167Y73800D01*
X67433Y73700D01*
X67700Y73800D01*
X67933Y74100D01*
X68100Y74550D01*
X68167Y75000D01*
Y75550D01*
X68100Y76000D01*
X67933Y76400D01*
X67733Y76600D01*
X67500Y76700D01*
X67233Y76600D01*
X67033Y76400D01*
X66900Y76100D01*
X66833Y75700D01*
X66900Y75350D01*
X67067Y75000D01*
X67267Y74800D01*
X67500Y74750D01*
X67767Y74850D01*
X67967Y75100D01*
X68167Y75550D01*
G01X53867Y85200D02*
Y88200D01*
X54533D01*
X54800Y88050D01*
X55000Y87850D01*
X55167Y87550D01*
X55300Y87200D01*
X55333Y86700D01*
X55300Y86200D01*
X55167Y85850D01*
X55000Y85550D01*
X54800Y85350D01*
X54533Y85200D01*
X53867D01*
G01X56367Y87700D02*
X56567Y88000D01*
X56800Y88150D01*
X57067Y88200D01*
X57400Y88100D01*
X57633Y87850D01*
X57700Y87550D01*
X57667Y87250D01*
X57533Y87000D01*
X56867Y86500D01*
X56567Y86150D01*
X56367Y85650D01*
X56300Y85200D01*
X57700D01*
G01X52400Y122233D02*
X49400D01*
Y123067D01*
X49550Y123333D01*
X49750Y123500D01*
X50150Y123567D01*
X50550Y123500D01*
X50800Y123300D01*
X50950Y123067D01*
Y122233D01*
G01Y123067D02*
X52400Y123567D01*
G01X49900Y124667D02*
X49600Y124867D01*
X49450Y125100D01*
X49400Y125367D01*
X49500Y125700D01*
X49750Y125933D01*
X50050Y126000D01*
X50350Y125967D01*
X50600Y125833D01*
X51100Y125167D01*
X51450Y124867D01*
X51950Y124667D01*
X52400Y124600D01*
Y126000D01*
G01X52600Y107733D02*
X49600D01*
Y108567D01*
X49750Y108833D01*
X49950Y109000D01*
X50350Y109067D01*
X50750Y109000D01*
X51000Y108800D01*
X51150Y108567D01*
Y107733D01*
G01Y108567D02*
X52600Y109067D01*
G01X52000Y110067D02*
X52350Y110267D01*
X52550Y110533D01*
X52600Y110833D01*
X52550Y111100D01*
X52300Y111367D01*
X52000Y111533D01*
X51700Y111567D01*
X51350Y111500D01*
X51100Y111267D01*
X51000Y111033D01*
Y110733D01*
G01Y111033D02*
X50850Y111233D01*
X50600Y111400D01*
X50300Y111467D01*
X50000Y111400D01*
X49750Y111233D01*
X49600Y110933D01*
X49650Y110633D01*
X49850Y110333D01*
G01X66500Y126433D02*
X63500D01*
Y127267D01*
X63650Y127533D01*
X63850Y127700D01*
X64250Y127767D01*
X64650Y127700D01*
X64900Y127500D01*
X65050Y127267D01*
Y126433D01*
G01Y127267D02*
X66500Y127767D01*
G01X66050Y128767D02*
X66300Y128967D01*
X66450Y129200D01*
X66500Y129500D01*
X66400Y129800D01*
X66200Y130033D01*
X65850Y130200D01*
X65450Y130233D01*
X65050Y130167D01*
X64800Y130000D01*
X64600Y129767D01*
X64550Y129533D01*
X64600Y129300D01*
X64800Y129000D01*
X63500Y129100D01*
Y130000D01*
G01X57600Y109400D02*
X57333Y109450D01*
X57100Y109650D01*
X56900Y109950D01*
X56767Y110300D01*
X56700Y110700D01*
Y111100D01*
X56767Y111500D01*
X56900Y111850D01*
X57100Y112150D01*
X57333Y112350D01*
X57600Y112400D01*
X57867Y112350D01*
X58100Y112150D01*
X58300Y111850D01*
X58433Y111500D01*
X58500Y111100D01*
Y110700D01*
X58433Y110300D01*
X58300Y109950D01*
X58100Y109650D01*
X57867Y109450D01*
X57600Y109400D01*
G01X57867Y110200D02*
X58267Y109400D01*
G01X59267Y110000D02*
X59467Y109650D01*
X59733Y109450D01*
X60033Y109400D01*
X60300Y109450D01*
X60567Y109700D01*
X60733Y110000D01*
X60767Y110300D01*
X60700Y110650D01*
X60467Y110900D01*
X60233Y111000D01*
X59933D01*
G01X60233D02*
X60433Y111150D01*
X60600Y111400D01*
X60667Y111700D01*
X60600Y112000D01*
X60433Y112250D01*
X60133Y112400D01*
X59833Y112350D01*
X59533Y112150D01*
G01X66400Y139933D02*
X63400D01*
Y140767D01*
X63550Y141033D01*
X63750Y141200D01*
X64150Y141267D01*
X64550Y141200D01*
X64800Y141000D01*
X64950Y140767D01*
Y139933D01*
G01Y140767D02*
X66400Y141267D01*
G01Y143400D02*
X63400D01*
X65550Y142167D01*
Y143833D01*
G01X52300Y139633D02*
X49300D01*
Y140467D01*
X49450Y140733D01*
X49650Y140900D01*
X50050Y140967D01*
X50450Y140900D01*
X50700Y140700D01*
X50850Y140467D01*
Y139633D01*
G01Y140467D02*
X52300Y140967D01*
G01Y142700D02*
X49300D01*
X49900Y142300D01*
G01X52300D02*
Y143100D01*
G01X95133Y5900D02*
Y8900D01*
X95967D01*
X96233Y8750D01*
X96400Y8550D01*
X96467Y8150D01*
X96400Y7750D01*
X96200Y7500D01*
X95967Y7350D01*
X95133D01*
G01X95967D02*
X96467Y5900D01*
G01X97467Y6500D02*
X97667Y6150D01*
X97933Y5950D01*
X98233Y5900D01*
X98500Y5950D01*
X98767Y6200D01*
X98933Y6500D01*
X98967Y6800D01*
X98900Y7150D01*
X98667Y7400D01*
X98433Y7500D01*
X98133D01*
G01X98433D02*
X98633Y7650D01*
X98800Y7900D01*
X98867Y8200D01*
X98800Y8500D01*
X98633Y8750D01*
X98333Y8900D01*
X98033Y8850D01*
X97733Y8650D01*
G01X99867Y6350D02*
X100067Y6100D01*
X100300Y5950D01*
X100600Y5900D01*
X100900Y6000D01*
X101133Y6200D01*
X101300Y6550D01*
X101333Y6950D01*
X101267Y7350D01*
X101100Y7600D01*
X100867Y7800D01*
X100633Y7850D01*
X100400Y7800D01*
X100100Y7600D01*
X100200Y8900D01*
X101100D01*
G01X90767Y9900D02*
Y12900D01*
X91433D01*
X91700Y12750D01*
X91900Y12550D01*
X92067Y12250D01*
X92200Y11900D01*
X92233Y11400D01*
X92200Y10900D01*
X92067Y10550D01*
X91900Y10250D01*
X91700Y10050D01*
X91433Y9900D01*
X90767D01*
G01X93167Y10500D02*
X93367Y10150D01*
X93633Y9950D01*
X93933Y9900D01*
X94200Y9950D01*
X94467Y10200D01*
X94633Y10500D01*
X94667Y10800D01*
X94600Y11150D01*
X94367Y11400D01*
X94133Y11500D01*
X93833D01*
G01X94133D02*
X94333Y11650D01*
X94500Y11900D01*
X94567Y12200D01*
X94500Y12500D01*
X94333Y12750D01*
X94033Y12900D01*
X93733Y12850D01*
X93433Y12650D01*
G01X103133Y27100D02*
Y30100D01*
X103967D01*
X104233Y29950D01*
X104400Y29750D01*
X104467Y29350D01*
X104400Y28950D01*
X104200Y28700D01*
X103967Y28550D01*
X103133D01*
G01X103967D02*
X104467Y27100D01*
G01X105467Y27700D02*
X105667Y27350D01*
X105933Y27150D01*
X106233Y27100D01*
X106500Y27150D01*
X106767Y27400D01*
X106933Y27700D01*
X106967Y28000D01*
X106900Y28350D01*
X106667Y28600D01*
X106433Y28700D01*
X106133D01*
G01X106433D02*
X106633Y28850D01*
X106800Y29100D01*
X106867Y29400D01*
X106800Y29700D01*
X106633Y29950D01*
X106333Y30100D01*
X106033Y30050D01*
X105733Y29850D01*
G01X107967Y28350D02*
X108200Y28700D01*
X108400Y28900D01*
X108667Y29000D01*
X108900Y28900D01*
X109067Y28700D01*
X109200Y28400D01*
X109233Y28050D01*
X109200Y27750D01*
X109067Y27450D01*
X108867Y27200D01*
X108633Y27100D01*
X108367Y27200D01*
X108133Y27500D01*
X108000Y27950D01*
X107967Y28450D01*
X108033Y29100D01*
X108133Y29450D01*
X108300Y29800D01*
X108533Y30050D01*
X108767Y30100D01*
X109000Y30000D01*
X109167Y29750D01*
G01X91633Y14400D02*
Y17400D01*
X92467D01*
X92733Y17250D01*
X92900Y17050D01*
X92967Y16650D01*
X92900Y16250D01*
X92700Y16000D01*
X92467Y15850D01*
X91633D01*
G01X92467D02*
X92967Y14400D01*
G01X93967Y15000D02*
X94167Y14650D01*
X94433Y14450D01*
X94733Y14400D01*
X95000Y14450D01*
X95267Y14700D01*
X95433Y15000D01*
X95467Y15300D01*
X95400Y15650D01*
X95167Y15900D01*
X94933Y16000D01*
X94633D01*
G01X94933D02*
X95133Y16150D01*
X95300Y16400D01*
X95367Y16700D01*
X95300Y17000D01*
X95133Y17250D01*
X94833Y17400D01*
X94533Y17350D01*
X94233Y17150D01*
G01X97033Y14400D02*
X97100Y15050D01*
X97200Y15600D01*
X97333Y16100D01*
X97500Y16650D01*
X97767Y17400D01*
X96433D01*
G01X82900Y39500D02*
X82633Y39550D01*
X82400Y39750D01*
X82200Y40050D01*
X82067Y40400D01*
X82000Y40800D01*
Y41200D01*
X82067Y41600D01*
X82200Y41950D01*
X82400Y42250D01*
X82633Y42450D01*
X82900Y42500D01*
X83167Y42450D01*
X83400Y42250D01*
X83600Y41950D01*
X83733Y41600D01*
X83800Y41200D01*
Y40800D01*
X83733Y40400D01*
X83600Y40050D01*
X83400Y39750D01*
X83167Y39550D01*
X82900Y39500D01*
G01X83167Y40300D02*
X83567Y39500D01*
G01X85300D02*
X85533Y39550D01*
X85800Y39700D01*
X85967Y39950D01*
X86033Y40300D01*
X85967Y40650D01*
X85767Y40950D01*
X85467Y41100D01*
X85133D01*
X84933Y41200D01*
X84767Y41450D01*
X84700Y41800D01*
X84800Y42150D01*
X85033Y42400D01*
X85300Y42500D01*
X85567Y42400D01*
X85800Y42150D01*
X85900Y41800D01*
X85833Y41450D01*
X85667Y41200D01*
X85467Y41100D01*
X85133D01*
X84833Y40950D01*
X84633Y40650D01*
X84567Y40300D01*
X84633Y39950D01*
X84800Y39700D01*
X85067Y39550D01*
X85300Y39500D01*
G01X99000Y99300D02*
X98733Y99350D01*
X98500Y99550D01*
X98300Y99850D01*
X98167Y100200D01*
X98100Y100600D01*
Y101000D01*
X98167Y101400D01*
X98300Y101750D01*
X98500Y102050D01*
X98733Y102250D01*
X99000Y102300D01*
X99267Y102250D01*
X99500Y102050D01*
X99700Y101750D01*
X99833Y101400D01*
X99900Y101000D01*
Y100600D01*
X99833Y100200D01*
X99700Y99850D01*
X99500Y99550D01*
X99267Y99350D01*
X99000Y99300D01*
G01X99267Y100100D02*
X99667Y99300D01*
G01X101800D02*
Y102300D01*
X100567Y100150D01*
X102233D01*
G01X77500Y133000D02*
X77233Y133050D01*
X77000Y133250D01*
X76800Y133550D01*
X76667Y133900D01*
X76600Y134300D01*
Y134700D01*
X76667Y135100D01*
X76800Y135450D01*
X77000Y135750D01*
X77233Y135950D01*
X77500Y136000D01*
X77767Y135950D01*
X78000Y135750D01*
X78200Y135450D01*
X78333Y135100D01*
X78400Y134700D01*
Y134300D01*
X78333Y133900D01*
X78200Y133550D01*
X78000Y133250D01*
X77767Y133050D01*
X77500Y133000D01*
G01X77767Y133800D02*
X78167Y133000D01*
G01X79900D02*
Y136000D01*
X79500Y135400D01*
G01Y133000D02*
X80300D01*
G01X80600Y139633D02*
X77600D01*
Y140467D01*
X77750Y140733D01*
X77950Y140900D01*
X78350Y140967D01*
X78750Y140900D01*
X79000Y140700D01*
X79150Y140467D01*
Y139633D01*
G01Y140467D02*
X80600Y140967D01*
G01X79350Y142067D02*
X79000Y142300D01*
X78800Y142500D01*
X78700Y142767D01*
X78800Y143000D01*
X79000Y143167D01*
X79300Y143300D01*
X79650Y143333D01*
X79950Y143300D01*
X80250Y143167D01*
X80500Y142967D01*
X80600Y142733D01*
X80500Y142467D01*
X80200Y142233D01*
X79750Y142100D01*
X79250Y142067D01*
X78600Y142133D01*
X78250Y142233D01*
X77900Y142400D01*
X77650Y142633D01*
X77600Y142867D01*
X77700Y143100D01*
X77950Y143267D01*
G01X94700Y141933D02*
X91700D01*
Y142767D01*
X91850Y143033D01*
X92050Y143200D01*
X92450Y143267D01*
X92850Y143200D01*
X93100Y143000D01*
X93250Y142767D01*
Y141933D01*
G01Y142767D02*
X94700Y143267D01*
G01Y144933D02*
X94050Y145000D01*
X93500Y145100D01*
X93000Y145233D01*
X92450Y145400D01*
X91700Y145667D01*
Y144333D01*
G01X101700Y138400D02*
X101433Y138450D01*
X101200Y138650D01*
X101000Y138950D01*
X100867Y139300D01*
X100800Y139700D01*
Y140100D01*
X100867Y140500D01*
X101000Y140850D01*
X101200Y141150D01*
X101433Y141350D01*
X101700Y141400D01*
X101967Y141350D01*
X102200Y141150D01*
X102400Y140850D01*
X102533Y140500D01*
X102600Y140100D01*
Y139700D01*
X102533Y139300D01*
X102400Y138950D01*
X102200Y138650D01*
X101967Y138450D01*
X101700Y138400D01*
G01X101967Y139200D02*
X102367Y138400D01*
G01X103467Y140900D02*
X103667Y141200D01*
X103900Y141350D01*
X104167Y141400D01*
X104500Y141300D01*
X104733Y141050D01*
X104800Y140750D01*
X104767Y140450D01*
X104633Y140200D01*
X103967Y139700D01*
X103667Y139350D01*
X103467Y138850D01*
X103400Y138400D01*
X104800D01*
G01X135900Y11133D02*
X132900D01*
Y11967D01*
X133050Y12233D01*
X133250Y12400D01*
X133650Y12467D01*
X134050Y12400D01*
X134300Y12200D01*
X134450Y11967D01*
Y11133D01*
G01Y11967D02*
X135900Y12467D01*
G01X135300Y13467D02*
X135650Y13667D01*
X135850Y13933D01*
X135900Y14233D01*
X135850Y14500D01*
X135600Y14767D01*
X135300Y14933D01*
X135000Y14967D01*
X134650Y14900D01*
X134400Y14667D01*
X134300Y14433D01*
Y14133D01*
G01Y14433D02*
X134150Y14633D01*
X133900Y14800D01*
X133600Y14867D01*
X133300Y14800D01*
X133050Y14633D01*
X132900Y14333D01*
X132950Y14033D01*
X133150Y13733D01*
G01X135900Y17000D02*
X132900D01*
X135050Y15767D01*
Y17433D01*
G01X135700Y27533D02*
X132700D01*
Y28367D01*
X132850Y28633D01*
X133050Y28800D01*
X133450Y28867D01*
X133850Y28800D01*
X134100Y28600D01*
X134250Y28367D01*
Y27533D01*
G01Y28367D02*
X135700Y28867D01*
G01X135100Y29867D02*
X135450Y30067D01*
X135650Y30333D01*
X135700Y30633D01*
X135650Y30900D01*
X135400Y31167D01*
X135100Y31333D01*
X134800Y31367D01*
X134450Y31300D01*
X134200Y31067D01*
X134100Y30833D01*
Y30533D01*
G01Y30833D02*
X133950Y31033D01*
X133700Y31200D01*
X133400Y31267D01*
X133100Y31200D01*
X132850Y31033D01*
X132700Y30733D01*
X132750Y30433D01*
X132950Y30133D01*
G01X135100Y32267D02*
X135450Y32467D01*
X135650Y32733D01*
X135700Y33033D01*
X135650Y33300D01*
X135400Y33567D01*
X135100Y33733D01*
X134800Y33767D01*
X134450Y33700D01*
X134200Y33467D01*
X134100Y33233D01*
Y32933D01*
G01Y33233D02*
X133950Y33433D01*
X133700Y33600D01*
X133400Y33667D01*
X133100Y33600D01*
X132850Y33433D01*
X132700Y33133D01*
X132750Y32833D01*
X132950Y32533D01*
G01X109200Y41700D02*
X108933Y41750D01*
X108700Y41950D01*
X108500Y42250D01*
X108367Y42600D01*
X108300Y43000D01*
Y43400D01*
X108367Y43800D01*
X108500Y44150D01*
X108700Y44450D01*
X108933Y44650D01*
X109200Y44700D01*
X109467Y44650D01*
X109700Y44450D01*
X109900Y44150D01*
X110033Y43800D01*
X110100Y43400D01*
Y43000D01*
X110033Y42600D01*
X109900Y42250D01*
X109700Y41950D01*
X109467Y41750D01*
X109200Y41700D01*
G01X109467Y42500D02*
X109867Y41700D01*
G01X111533D02*
X111600Y42350D01*
X111700Y42900D01*
X111833Y43400D01*
X112000Y43950D01*
X112267Y44700D01*
X110933D01*
G01X126167Y61800D02*
Y64300D01*
X126833D01*
X127047Y64175D01*
X127180Y64008D01*
X127233Y63675D01*
X127180Y63342D01*
X127020Y63133D01*
X126833Y63008D01*
X126167D01*
G01X126833D02*
X127233Y61800D01*
G01X128700D02*
Y64300D01*
X128380Y63800D01*
G01Y61800D02*
X129020D01*
G01X130647D02*
X130700Y62342D01*
X130780Y62800D01*
X130887Y63217D01*
X131020Y63675D01*
X131233Y64300D01*
X130167D01*
G01X108500Y73500D02*
X108287Y73542D01*
X108100Y73708D01*
X107940Y73958D01*
X107833Y74250D01*
X107780Y74583D01*
Y74917D01*
X107833Y75250D01*
X107940Y75542D01*
X108100Y75792D01*
X108287Y75958D01*
X108500Y76000D01*
X108713Y75958D01*
X108900Y75792D01*
X109060Y75542D01*
X109167Y75250D01*
X109220Y74917D01*
Y74583D01*
X109167Y74250D01*
X109060Y73958D01*
X108900Y73708D01*
X108713Y73542D01*
X108500Y73500D01*
G01X108713Y74167D02*
X109033Y73500D01*
G01X110047Y73792D02*
X110233Y73583D01*
X110447Y73500D01*
X110660Y73583D01*
X110847Y73833D01*
X110980Y74208D01*
X111033Y74583D01*
Y75042D01*
X110980Y75417D01*
X110847Y75750D01*
X110687Y75917D01*
X110500Y76000D01*
X110287Y75917D01*
X110127Y75750D01*
X110020Y75500D01*
X109967Y75167D01*
X110020Y74875D01*
X110153Y74583D01*
X110313Y74417D01*
X110500Y74375D01*
X110713Y74458D01*
X110873Y74667D01*
X111033Y75042D01*
G01X125433Y76900D02*
Y79900D01*
X126267D01*
X126533Y79750D01*
X126700Y79550D01*
X126767Y79150D01*
X126700Y78750D01*
X126500Y78500D01*
X126267Y78350D01*
X125433D01*
G01X126267D02*
X126767Y76900D01*
G01X128500D02*
Y79900D01*
X128100Y79300D01*
G01Y76900D02*
X128900D01*
G01X130900D02*
X131133Y76950D01*
X131400Y77100D01*
X131567Y77350D01*
X131633Y77700D01*
X131567Y78050D01*
X131367Y78350D01*
X131067Y78500D01*
X130733D01*
X130533Y78600D01*
X130367Y78850D01*
X130300Y79200D01*
X130400Y79550D01*
X130633Y79800D01*
X130900Y79900D01*
X131167Y79800D01*
X131400Y79550D01*
X131500Y79200D01*
X131433Y78850D01*
X131267Y78600D01*
X131067Y78500D01*
X130733D01*
X130433Y78350D01*
X130233Y78050D01*
X130167Y77700D01*
X130233Y77350D01*
X130400Y77100D01*
X130667Y76950D01*
X130900Y76900D01*
G01X132300Y131133D02*
X129300D01*
Y131967D01*
X129450Y132233D01*
X129650Y132400D01*
X130050Y132467D01*
X130450Y132400D01*
X130700Y132200D01*
X130850Y131967D01*
Y131133D01*
G01Y131967D02*
X132300Y132467D01*
G01Y134200D02*
X129300D01*
X129900Y133800D01*
G01X132300D02*
Y134600D01*
G01X129800Y135967D02*
X129500Y136167D01*
X129350Y136400D01*
X129300Y136667D01*
X129400Y137000D01*
X129650Y137233D01*
X129950Y137300D01*
X130250Y137267D01*
X130500Y137133D01*
X131000Y136467D01*
X131350Y136167D01*
X131850Y135967D01*
X132300Y135900D01*
Y137300D01*
G01X123433Y106000D02*
Y109000D01*
X124267D01*
X124533Y108850D01*
X124700Y108650D01*
X124767Y108250D01*
X124700Y107850D01*
X124500Y107600D01*
X124267Y107450D01*
X123433D01*
G01X124267D02*
X124767Y106000D01*
G01X126500D02*
Y109000D01*
X126100Y108400D01*
G01Y106000D02*
X126900D01*
G01X128167Y106600D02*
X128367Y106250D01*
X128633Y106050D01*
X128933Y106000D01*
X129200Y106050D01*
X129467Y106300D01*
X129633Y106600D01*
X129667Y106900D01*
X129600Y107250D01*
X129367Y107500D01*
X129133Y107600D01*
X128833D01*
G01X129133D02*
X129333Y107750D01*
X129500Y108000D01*
X129567Y108300D01*
X129500Y108600D01*
X129333Y108850D01*
X129033Y109000D01*
X128733Y108950D01*
X128433Y108750D01*
G01X116000Y139933D02*
X113000D01*
Y140767D01*
X113150Y141033D01*
X113350Y141200D01*
X113750Y141267D01*
X114150Y141200D01*
X114400Y141000D01*
X114550Y140767D01*
Y139933D01*
G01Y140767D02*
X116000Y141267D01*
G01Y143400D02*
X113000D01*
X115150Y142167D01*
Y143833D01*
G01X116000Y145400D02*
X113000D01*
X113600Y145000D01*
G01X116000D02*
Y145800D01*
G01X149633Y44400D02*
X149800Y44100D01*
X150000Y43900D01*
X150233Y43800D01*
X150500Y43900D01*
X150700Y44100D01*
X150900Y44400D01*
X150967Y44800D01*
Y46800D01*
G01X152700Y43800D02*
Y46800D01*
X152300Y46200D01*
G01Y43800D02*
X153100D01*
G01X142800Y101933D02*
X139800D01*
Y102767D01*
X139950Y103033D01*
X140150Y103200D01*
X140550Y103267D01*
X140950Y103200D01*
X141200Y103000D01*
X141350Y102767D01*
Y101933D01*
G01Y102767D02*
X142800Y103267D01*
G01Y105000D02*
X139800D01*
X140400Y104600D01*
G01X142800D02*
Y105400D01*
G01X142350Y106667D02*
X142600Y106867D01*
X142750Y107100D01*
X142800Y107400D01*
X142700Y107700D01*
X142500Y107933D01*
X142150Y108100D01*
X141750Y108133D01*
X141350Y108067D01*
X141100Y107900D01*
X140900Y107667D01*
X140850Y107433D01*
X140900Y107200D01*
X141100Y106900D01*
X139800Y107000D01*
Y107900D01*
G01X142600Y90933D02*
X139600D01*
Y91767D01*
X139750Y92033D01*
X139950Y92200D01*
X140350Y92267D01*
X140750Y92200D01*
X141000Y92000D01*
X141150Y91767D01*
Y90933D01*
G01Y91767D02*
X142600Y92267D01*
G01Y94000D02*
X139600D01*
X140200Y93600D01*
G01X142600D02*
Y94400D01*
G01X141350Y95767D02*
X141000Y96000D01*
X140800Y96200D01*
X140700Y96467D01*
X140800Y96700D01*
X141000Y96867D01*
X141300Y97000D01*
X141650Y97033D01*
X141950Y97000D01*
X142250Y96867D01*
X142500Y96667D01*
X142600Y96433D01*
X142500Y96167D01*
X142200Y95933D01*
X141750Y95800D01*
X141250Y95767D01*
X140600Y95833D01*
X140250Y95933D01*
X139900Y96100D01*
X139650Y96333D01*
X139600Y96567D01*
X139700Y96800D01*
X139950Y96967D01*
G01X145533Y131800D02*
Y134800D01*
X146367D01*
X146633Y134650D01*
X146800Y134450D01*
X146867Y134050D01*
X146800Y133650D01*
X146600Y133400D01*
X146367Y133250D01*
X145533D01*
G01X146367D02*
X146867Y131800D01*
G01X148600D02*
Y134800D01*
X148200Y134200D01*
G01Y131800D02*
X149000D01*
G01X151400D02*
Y134800D01*
X150167Y132650D01*
X151833D01*
G54D13*
G01X82706Y44832D02*
G03I-393J0D01*
G01X105147Y68848D02*
Y94439D01*
X79163D01*
Y68848D01*
G01X137916Y49635D02*
X133585D01*
Y69320D01*
X134766D01*
G01X138900Y59478D02*
X147758D01*
G01X143428Y54950D02*
Y64006D01*
G01X137522Y59478D02*
G03X143428Y53572I5906J0D01*
G03X149333Y59675I-1J5909D01*
G03X143428Y65383I-5899J-194D01*
G03X137522Y59478I-1J-5905D01*
G01X142443Y69320D02*
X144412D01*
G01X148939Y49635D02*
X153270D01*
Y69320D01*
X152089D01*
M02*
